<svg xmlns="http://www.w3.org/2000/svg" height="800" width="800" viewBox="-43.8 -43.8 525.64 525.64"
  fill="#000000" xmlns:v="https://vecta.io/nano">
  <path fill="#c1272c" d="M-43.8-43.8h525.64v525.64H-43.8z" />
  <path
    d="M437.8 126.417l-.02 70.71c-.31 20.21-2.01 40.4-1.91 60.6l1.91 115.91c.22 11.65-3.54 15.02-15.34 13.44-16.18-2.16-20.59-6.31-20.52-22.74.11-25.74 1.38-51.48 1.77-77.23l.06-65.74c-9.86-1.2-13.5-7.85-13.79-17.49l-2.27-60.63-.13-81.58c.03-3.61 1.62-8.78 4.22-10.34 2.61-1.57 8.27-.79 11.04 1.16 5.92 4.19 11.9 9.07 15.96 14.96 12.14 17.63 18.75 37.44 19.02 58.97zm-9.36 188.74c.63-42.57-4.09-85.03-1.68-127.65 1.12-19.82.34-39.76.1-59.65-.24-19.47-4.37-37.98-15.73-54.23-3.05-4.37-6.89-8.18-11.53-13.61 0 17.64.5 32.71-.11 47.72-1.21 30.18-1.86 60.29.41 90.48.65 8.67 2.55 14.81 10.97 17.95.53.2.77 1.19 1.14 1.82-.58 3.11-1.7 6.22-1.67 9.33l1 89.36c.08 15.83-.76 31.66-.61 47.48.11 12.63 4.32 15.39 17.66 12.64l.05-61.64z" />
  <path
    d="M426.76 187.507c-2.41 42.62 2.31 85.08 1.68 127.65l-.05 61.64c-13.34 2.75-17.55-.01-17.66-12.64-.15-15.82.69-31.65.61-47.48l-1-89.36c-.03-3.11 1.09-6.22 1.67-9.33-.37-.63-.61-1.62-1.14-1.82-8.42-3.14-10.32-9.28-10.97-17.95-2.27-30.19-1.62-60.3-.41-90.48.61-15.01.11-30.08.11-47.72 4.64 5.43 8.48 9.24 11.53 13.61 11.36 16.25 15.49 34.76 15.73 54.23.24 19.89 1.02 39.83-.1 59.65z"
    fill="#ccc" />
  <path
    d="M378.18 213.787c.13 4.78.02 9.58.02 14.37-.4 25.84-2.5 51.35-11.05 76.11-3.89 11.29-8.32 22.02-15.84 31.29-19.01 23.42-41.42 40.67-72.08 47.55-45.31 10.18-87.61 2.06-128.8-16.23-27.37-12.15-43.12-35.08-52.97-62.18-9.81-27-11.37-55.18-10.73-83.78.85-38.06 19.59-68.37 41.44-96.74 15.34-19.93 38.96-28.51 62.98-33.97 24.24-5.51 48.64-6.84 73.26-.82 9.13 2.23 18.95 1.5 28.37 2.76 4.27.57 8.62 2.17 12.46 4.2 47.16 24.91 71.44 64.13 72.94 117.44zm-24.38 94.02c12.51-36.14 15.75-73.22 10.69-110.93-3.41-25.42-13.28-48.41-32.03-66.35-8.95-8.57-19.66-15.4-30.03-22.33-4.79-3.19-10.48-5.79-16.1-6.83-26.76-4.93-53.57-9.24-80.96-4.25-36.95 6.74-67.57 22.32-84.73 57.92-2.87 5.95-7 11.34-9.53 17.42a306.52 306.52 0 0 0-10.67 30.06c-.98 3.28.18 7.2.47 10.85-.09.05-.17.1-.26.14l-.01-.01c-.26 8.22-4.42 16.45-.41 25.78l12.65-20.13c-1.66 7.3-4.54 13.97-8.55 19.87-7.12 10.47-6.09 21.08-2.09 33.72l14.95-30.25 1.95 1.01c-4.52 9.98-9.42 19.82-13.38 30.03-1.63 4.18-2.47 9.41-1.54 13.7 3.96 18.28 12.42 34.67 24.07 49.19 8.13 10.14 18.69 17.42 31.27 22.65 4.28-12.09 9.06-23.11 15.13-33.47l2.2.99-14.18 34.1 11.32 4.16 11.45-27.48 1.88.67-9.77 28.3 13.16 3.39 14.55-27.43 1.68.86-12.45 27.29c7.06 1.66 13.02 3.81 19.12 4.31 10.48.87 21.05.7 31.58.97v-.14c1.62.59 3.31 1.68 4.82 1.48 30.05-4 58.31-11.98 80.1-35.09 9.66-10.24 18.91-20.49 23.65-34.17z" />
  <path
    d="M364.49 196.877c5.06 37.71 1.82 74.79-10.69 110.93-4.74 13.68-13.99 23.93-23.65 34.17-21.79 23.11-50.05 31.09-80.1 35.09-1.51.2-3.2-.89-4.82-1.48-.01-.12-.01-.23-.01-.34 6.1-5.03 8.36-12.37 11.43-19.22-4.41 6.05-11.52 10.54-11.43 19.22-.09.08-.18.15-.28.23l.02.02.07.06c.09.08.2.17.2.17-10.53-.27-21.1-.1-31.58-.97-6.1-.5-12.06-2.65-19.12-4.31l12.45-27.29-1.68-.86-14.55 27.43-13.16-3.39 9.77-28.3-1.88-.67-11.45 27.48-11.32-4.16 14.18-34.1-2.2-.99c-6.07 10.36-10.85 21.38-15.13 33.47-12.58-5.23-23.14-12.51-31.27-22.65-11.65-14.52-20.11-30.91-24.07-49.19-.93-4.29-.09-9.52 1.54-13.7 3.96-10.21 8.86-20.05 13.38-30.03l-1.95-1.01-14.95 30.25c-4-12.64-5.03-23.25 2.09-33.72 4.01-5.9 6.89-12.57 8.55-19.87l-12.65 20.13c-4.01-9.33.15-17.56.41-25.78l.01.01.3.27.28-.58c4.92-2.77 6.14-7.69 6.35-13.14l-6.35 13.14a3.24 3.24 0 0 1-.32.17c-.29-3.65-1.45-7.57-.47-10.85a306.52 306.52 0 0 1 10.67-30.06c2.53-6.08 6.66-11.47 9.53-17.42 17.16-35.6 47.78-51.18 84.73-57.92 27.39-4.99 54.2-.68 80.96 4.25 5.62 1.04 11.31 3.64 16.1 6.83 10.37 6.93 21.08 13.76 30.03 22.33 18.75 17.94 28.62 40.93 32.03 66.35zm-50.11 46.41c8.11-17.63 11.93-36.31 10.63-55.89-1.21-18.27-13.94-35.96-28.75-39.65-18.19-4.54-38.09 2.49-48.93 17.99-5.22 7.47-9.38 15.67-14.42 24.21-19.38-14.62-41.26-12.96-63.27-8.5-13.78 2.79-25.8 9.13-33.29 21.69-16.9 28.38-8.99 73.43 23.31 91.74 34.02 19.3 70.81 22.94 108.02 27.13 6.53.74 10.13-2.25 12.83-7.98l33.87-70.74zm-86.21 127.91l13.73-22.83-2.03-1.29-14.38 22.43 2.68 1.69zm-16.49-2.27l4.42-9.33-1.76-.8-4.44 9.29 1.78.84zm-56.64-17.39l10.3-26.5-2.19-.9-11.1 26 2.99 1.4zm-16.42-10.13l12.06-32.81-2.35-.86c-5.11 10.54-10.91 20.83-12.23 32.75l2.52.92zm-12.88-19.27l10.67-24.02c-10.4 11.54-12.18 16.06-10.67 24.02zm-10.61-17.92l10.7-24.01-2.44-1.09-10.96 23.9 2.7 1.2z"
    fill="#e6e6e6" />
  <path
    d="M325.01 187.397c1.3 19.58-2.52 38.26-10.63 55.89-10.93 23.75-22.71 47.1-33.87 70.74-2.7 5.73-6.3 8.72-12.83 7.98-37.21-4.19-74-7.83-108.02-27.13-32.3-18.31-40.21-63.36-23.31-91.74 7.49-12.56 19.51-18.9 33.29-21.69 22.01-4.46 43.89-6.12 63.27 8.5 5.04-8.54 9.2-16.74 14.42-24.21 10.84-15.5 30.74-22.53 48.93-17.99 14.81 3.69 27.54 21.38 28.75 39.65zm-10.26 18.74c1.39-10.01 1.37-19.83-1.5-29.48-4.95-16.64-18.67-24.41-35.84-21.25-9.58 1.77-17.42 6.34-23.2 13.75-4.93 6.32-8.82 13.49-12.82 20.48-3.76 6.59-6.67 8.06-13.05 4.28-22.96-13.57-46.13-10.05-68.86-.3-17.03 7.31-26.53 30.47-21.57 48.45l7.63-8.99c-1.76 4.45-3.74 8.83-5.03 13.41-.96 3.39-1.78 7.33-.98 10.61 2.53 10.26 7.63 19.33 16.77 25.14 13.7 8.71 28.05 16.65 43.96 20.14 20.39 4.46 41.11 7.41 61.7 10.95 4.91.84 7.95-.66 10.19-5.82 5.11-11.8 11.37-23.09 16.8-34.75 10.07-21.62 22.42-42.34 25.8-66.62z" />
  <path
    d="M313.25 176.657c2.87 9.65 2.89 19.47 1.5 29.48-3.38 24.28-15.73 45-25.8 66.62-5.43 11.66-11.69 22.95-16.8 34.75-2.24 5.16-5.28 6.66-10.19 5.82-20.59-3.54-41.31-6.49-61.7-10.95-15.91-3.49-30.26-11.43-43.96-20.14-9.14-5.81-14.24-14.88-16.77-25.14-.8-3.28.02-7.22.98-10.61 1.29-4.58 3.27-8.96 5.03-13.41.21-.26.43-.51.65-.77l.19-1.21 3.49-7.21-2.27-.72-1.22 7.93-.47.97.02.02-.39.99-7.63 8.99c-4.96-17.98 4.54-41.14 21.57-48.45 22.73-9.75 45.9-13.27 68.86.3 6.38 3.78 9.29 2.31 13.05-4.28 4-6.99 7.89-14.16 12.82-20.48 5.78-7.41 13.62-11.98 23.2-13.75 17.17-3.16 30.89 4.61 35.84 21.25zm-89.99 125.02l9-15.03-2.58-1.54-8.61 15.36 2.19 1.21zm-16.97-7.08l10.37-19.21-2.23-1.21-10.88 18.93 2.74 1.49zm-16.56-1.4l10.59-21.2-1.89-1.19-10.56 21.5 1.86.89zm-9.67-20.15l4.13-7.28-1.7-1.1-3.68 7.77 1.25.61zm-17.11-7.85l3.83-6.31-1.21-1.2-3.68 7.02 1.06.49zm-11.63-4.32l2.91-6.29-1.83-.82-2.37 6.6 1.29.51z"
    fill="#c1272d" />
  <path
    d="M256.65 356.027c-3.07 6.85-5.33 14.19-11.43 19.22-.09-8.68 7.02-13.17 11.43-19.22zm-11.42 19.56v.14l-.2-.17c-.03-.02-.05-.04-.07-.06l.27.09z" />
  <path d="M245.22 375.247l.01.34-.27-.09-.02-.02.28-.23z" />
  <path
    d="M245.03 375.557l-.07-.06c.02.02.04.04.07.06zm-3.13-27.19l-13.73 22.83-2.68-1.69 14.38-22.43 2.03 1.29zm-9.64-61.72l-9 15.03-2.19-1.21 8.61-15.36 2.58 1.54zm-15.6-11.26l-10.37 19.21-2.74-1.49 10.88-18.93 2.23 1.21zm-.56 84.21l-4.42 9.33-1.78-.84 4.44-9.29 1.76.8zm-15.78-87.6l-10.59 21.2-1.86-.89 10.56-21.5 1.89 1.19zm-16.13-6.23l-4.13 7.28-1.25-.61 3.68-7.77 1.7 1.1zm-17.41-6.88l-3.83 6.31-1.06-.49 3.68-7.02 1.21 1.2zm-1.44 66.15l-10.3 26.5-2.99-1.4 11.1-26 2.19.9zm-11.11-70.45l-2.91 6.29-1.29-.51 2.37-6.6 1.83.82zm-3.55 54.01l-12.06 32.81-2.52-.92c1.32-11.92 7.12-22.21 12.23-32.75l2.35.86zm-3.08-85.43l2.27.72-3.49 7.21 1.22-7.93z" />
  <path d="M146.38 231.097l-.19 1.21-.26-.22-.02-.02.47-.97z" />
  <path
    d="M146.19 232.307l-.65.77.39-.99.26.22zm-9.78 65.81l-10.67 24.02c-1.51-7.96.27-12.48 10.67-24.02zm-10.58-17.91l-10.7 24.01-2.7-1.2 10.96-23.9 2.44 1.09zm-24.6-67.01l6.35-13.14c-.21 5.45-1.43 10.37-6.35 13.14z" />
  <path d="M101.23 213.197l-.28.58-.04-.41a3.24 3.24 0 0 0 .32-.17z" />
  <path
    d="M100.91 213.367l.04.41-.3-.27c.09-.04.17-.09.26-.14zm-15.74-46.18c.82 10.03-1.23 18.65-13.16 22.32-9.63 2.96-14.65 11.25-14.98 21.21-.39 11.75-.59 23.64.73 35.29 3.74 32.92 7.73 65.8 8.47 98.98.13 6.19 1.81 12.36 3.01 18.49 2.89 14.8-2.15 21.5-17.31 22.7-2.2.18-4.42.28-6.62.15-12.75-.76-17.68-5.01-20.05-17.63-.74-3.95-1.06-8.03-1.09-12.05l-.6-141.55c.03-11.68-1.89-20.9-14.25-25.56-6.95-2.62-9.5-9.45-9.31-16.31.57-20.24 1.42-40.48 3-60.66.37-4.71 3.34-9.76 6.43-13.58 3.89-4.8 8.86-3.33 10.64 2.63.82 2.77.99 5.8 1 8.72l-.1 29.85c.06 4.14-.72 8.83 5.04 12.93 0-7.44-.36-13.54.09-19.58.66-8.74.99-17.67 3.19-26.07 2.11-8.01 7.52-11.59 12.17-10.82 4.49.74 8.16 6.37 8.36 14.12.16 6.24-.47 12.5-.84 18.75-.44 7.29-.68 14.5 4.41 21.38 5.03-7.75 3.04-15.43 2.6-22.98-.42-7.32-.73-14.65-.82-21.99-.03-2.13.65-4.35 1.35-6.42 2.28-6.79 6.46-10.16 11.71-9.68 4.94.45 9.53 4.98 10.26 11.48l6.67 65.88zm-18.66 16.29c10.93-4.53 11.3-4.55 10.29-15.75l-6.93-67.97c-.13-1.24-1.41-2.36-2.17-3.56-5.17.67-6.16 4.3-6.39 7.99-.3 4.77-.25 9.58.11 14.34.62 8.44 1.9 16.84 2.32 25.28.41 8.12-3.31 13.92-8.65 14.9-6.08 1.11-11.46-3.18-12.78-12.31-1.2-8.31-.63-16.88-.76-25.34-.09-5.38-.02-10.77-.02-16.15l-2.83-.59c-4.66 3.98-6.65 9.3-6.47 15.38.2 6.61.88 13.21 1.33 19.81.27 4.03.89 8.08.66 12.08-.28 5.05-2.25 9.48-7.83 10.72-4.4.97-9.66-2.84-10.75-9.07-1.32-7.53-1.92-15.33-1.61-22.96.36-8.93.65-17.76.4-27.38-6.9 3.27-6.59 8.18-6.61 12.95l-.39 51.9c-.25 8.83 2.49 14.86 11.17 17.95 9.16 3.26 12.55 10.82 13.44 19.81.32 3.3.18 6.64.2 9.95l.81 136.04c.05 5.86.84 11.75 1.77 17.54.39 2.37 1.6 5 3.27 6.69 3 3.02 15.02 3.29 19.15.7 5.58-3.49 3.94-8.93 3.29-13.96-1.12-8.74-2.76-17.44-3.55-26.2l-9.69-108.85c-.87-8.69.17-16.82 2.14-25.05 2.24-9.38 8.41-15.3 17.08-18.89z" />
  <path
    d="M76.8 167.727c1.01 11.2.64 11.22-10.29 15.75-8.67 3.59-14.84 9.51-17.08 18.89-1.97 8.23-3.01 16.36-2.14 25.05l9.69 108.85c.79 8.76 2.43 17.46 3.55 26.2.65 5.03 2.29 10.47-3.29 13.96-4.13 2.59-16.15 2.32-19.15-.7-1.67-1.69-2.88-4.32-3.27-6.69-.93-5.79-1.72-11.68-1.77-17.54l-.81-136.04c-.02-3.31.12-6.65-.2-9.95-.89-8.99-4.28-16.55-13.44-19.81-8.68-3.09-11.42-9.12-11.17-17.95.48-17.29.29-34.6.39-51.9.02-4.77-.29-9.68 6.61-12.95.25 9.62-.04 18.45-.4 27.38-.31 7.63.29 15.43 1.61 22.96 1.09 6.23 6.35 10.04 10.75 9.07 5.58-1.24 7.55-5.67 7.83-10.72.23-4-.39-8.05-.66-12.08-.45-6.6-1.13-13.2-1.33-19.81-.18-6.08 1.81-11.4 6.47-15.38l2.83.59.02 16.15c.13 8.46-.44 17.03.76 25.34 1.32 9.13 6.7 13.42 12.78 12.31 5.34-.98 9.06-6.78 8.65-14.9-.42-8.44-1.7-16.84-2.32-25.28-.36-4.76-.41-9.57-.11-14.34.23-3.69 1.22-7.32 6.39-7.99.76 1.2 2.04 2.32 2.17 3.56l6.93 67.97z"
    fill="#ccc" />
</svg>
